<?xml version="1.0" encoding="UTF-8" standalone="no"?>
<!-- Created with Inkscape (http://www.inkscape.org/) -->

<svg
   version="1.1"
   id="svg2"
   width="2666.6667"
   height="250"
   viewBox="0 0 2666.6667 249.99999"
   sodipodi:docname="AI.file A.svg"
   inkscape:export-filename="..\Documents\ARP\main\chemquest-website\chemquest_website\static\images\AI.file A.svg"
   inkscape:export-xdpi="96"
   inkscape:export-ydpi="96"
   xmlns:inkscape="http://www.inkscape.org/namespaces/inkscape"
   xmlns:sodipodi="http://sodipodi.sourceforge.net/DTD/sodipodi-0.dtd"
   xmlns="http://www.w3.org/2000/svg"
   xmlns:svg="http://www.w3.org/2000/svg">
  <defs
     id="defs6">
    <clipPath
       clipPathUnits="userSpaceOnUse"
       id="clipPath7">
      <g
         id="g9"
         transform="translate(-1520.6528,-683.6294)">
        <path
           d="M 0,2000 H 2000 V 0 H 0 Z"
           id="path7" />
      </g>
    </clipPath>
    <clipPath
       clipPathUnits="userSpaceOnUse"
       id="clipPath9">
      <g
         id="g10"
         transform="translate(-1458.5732,-647.165)">
        <path
           d="M 0,2000 H 2000 V 0 H 0 Z"
           id="path9" />
      </g>
    </clipPath>
    <clipPath
       clipPathUnits="userSpaceOnUse"
       id="clipPath10">
      <g
         id="g11"
         transform="translate(-1374.2593,-665.0894)">
        <path
           d="M 0,2000 H 2000 V 0 H 0 Z"
           id="path10" />
      </g>
    </clipPath>
    <clipPath
       clipPathUnits="userSpaceOnUse"
       id="clipPath11">
      <g
         id="g12"
         transform="translate(-1315.7939,-753.0195)">
        <path
           d="M 0,2000 H 2000 V 0 H 0 Z"
           id="path11" />
      </g>
    </clipPath>
    <clipPath
       clipPathUnits="userSpaceOnUse"
       id="clipPath12">
      <g
         id="g13"
         transform="translate(-1215.9399,-669.936)">
        <path
           d="M 0,2000 H 2000 V 0 H 0 Z"
           id="path12" />
      </g>
    </clipPath>
    <clipPath
       clipPathUnits="userSpaceOnUse"
       id="clipPath13">
      <g
         id="g14"
         transform="translate(-1110.9326,-657.0117)">
        <path
           d="M 0,2000 H 2000 V 0 H 0 Z"
           id="path13" />
      </g>
    </clipPath>
    <clipPath
       clipPathUnits="userSpaceOnUse"
       id="clipPath14">
      <g
         id="g15"
         transform="translate(-906.6084,-651.165)">
        <path
           d="M 0,2000 H 2000 V 0 H 0 Z"
           id="path15" />
      </g>
    </clipPath>
    <clipPath
       clipPathUnits="userSpaceOnUse"
       id="clipPath15">
      <g
         id="g16"
         transform="translate(-796.832,-647.165)">
        <path
           d="M 0,2000 H 2000 V 0 H 0 Z"
           id="path16" />
      </g>
    </clipPath>
    <clipPath
       clipPathUnits="userSpaceOnUse"
       id="clipPath16">
      <g
         id="g17"
         transform="translate(-667.9751,-728.7871)">
        <path
           d="M 0,2000 H 2000 V 0 H 0 Z"
           id="path17" />
      </g>
    </clipPath>
    <clipPath
       clipPathUnits="userSpaceOnUse"
       id="clipPath17">
      <g
         id="g19"
         transform="translate(-586.7388,-749.6348)">
        <path
           d="M 0,2000 H 2000 V 0 H 0 Z"
           id="path18" />
      </g>
    </clipPath>
    <clipPath
       clipPathUnits="userSpaceOnUse"
       id="clipPath19">
      <g
         id="g20"
         transform="translate(-485.3467,-646.2417)">
        <path
           d="M 0,2000 H 2000 V 0 H 0 Z"
           id="path19" />
      </g>
    </clipPath>
  </defs>
  <sodipodi:namedview
     id="namedview4"
     pagecolor="#ffffff"
     bordercolor="#000000"
     borderopacity="0.25"
     inkscape:showpageshadow="2"
     inkscape:pageopacity="0.0"
     inkscape:pagecheckerboard="0"
     inkscape:deskcolor="#d1d1d1" />
  <g
     id="g21"
     transform="matrix(1.6546616,0,0,1.6546616,-872.88148,-2742.0292)">
    <g
       id="g18"
       transform="matrix(1.3333333,0,0,-1.3333333,647.12892,1805.0111)"
       clip-path="url(#clipPath19)">
      <path
         d="m 0,0 h -18.617 c -1.334,0 -2.334,0.332 -3,1 -0.669,0.666 -1,1.666 -1,3 v 36.311 c 0,0.82 -0.181,1.409 -0.539,1.769 -0.361,0.358 -1,0.539 -1.923,0.539 h -35.542 c -0.922,0 -1.538,-0.181 -1.846,-0.539 -0.307,-0.36 -0.461,-0.949 -0.461,-1.769 V 4 c 0,-1.437 -0.334,-2.461 -1,-3.077 C -64.597,0.308 -65.647,0 -67.083,0 h -18.616 c -1.335,0 -2.335,0.332 -3.001,1 -0.668,0.666 -1,1.666 -1,3 v 99.701 c 0,1.435 0.332,2.462 1,3.077 0.666,0.616 1.666,0.923 3.001,0.923 h 18.616 c 1.436,0 2.486,-0.307 3.155,-0.923 0.666,-0.615 1,-1.642 1,-3.077 V 69.544 c 0,-0.822 0.154,-1.411 0.461,-1.769 0.308,-0.36 0.924,-0.538 1.846,-0.538 h 35.542 c 0.923,0 1.562,0.178 1.923,0.538 0.358,0.358 0.539,0.947 0.539,1.769 v 34.157 c 0,1.435 0.331,2.462 1,3.077 0.666,0.616 1.666,0.923 3,0.923 H 0 c 2.77,0 4.154,-1.334 4.154,-4 V 4 C 4.154,1.332 2.77,0 0,0"
         style="fill:#000000;fill-opacity:1;fill-rule:nonzero;stroke:none"
         id="path20" />
    </g>
    <g
       id="g22"
       transform="matrix(1.3333333,0,0,-1.3333333,782.31838,1667.1537)"
       clip-path="url(#clipPath17)">
      <path
         d="m 0,0 c 1.024,1.847 2,3.024 2.923,3.539 0.924,0.512 2.359,0.769 4.308,0.769 h 20.464 c 2.154,0 3.231,-0.668 3.231,-2 0,-0.719 -0.308,-1.538 -0.924,-2.461 L -8,-63.543 v -35.85 c 0,-1.334 -0.309,-2.334 -0.924,-3 -0.615,-0.669 -1.641,-1 -3.077,-1 h -18.77 c -1.335,0 -2.335,0.331 -3.001,1 -0.668,0.666 -1,1.666 -1,3 v 35.08 l -38.465,64.16 c -0.615,0.923 -0.923,1.742 -0.923,2.461 0,1.332 1.077,2 3.231,2 h 21.233 c 1.947,0 3.384,-0.257 4.307,-0.769 0.924,-0.515 1.898,-1.692 2.924,-3.539 l 21.232,-37.542 z"
         style="fill:#000000;fill-opacity:1;fill-rule:nonzero;stroke:none"
         id="path24" />
    </g>
    <g
       id="g26"
       transform="matrix(1.3333333,0,0,-1.3333333,890.63344,1694.9506)"
       clip-path="url(#clipPath16)">
      <path
         d="m 0,0 c -0.308,-0.36 -0.461,-0.949 -0.461,-1.77 v -53.85 c 0,-0.822 0.153,-1.411 0.461,-1.77 0.308,-0.36 0.923,-0.538 1.846,-0.538 h 10.001 c 11.078,0 19.514,2.615 25.31,7.847 5.794,5.231 8.693,12.513 8.693,21.848 0,5.846 -1.284,10.924 -3.847,15.232 C 39.438,-8.693 35.668,-5.361 30.695,-3 25.719,-0.642 19.641,0.539 12.463,0.539 H 1.846 C 0.923,0.539 0.308,0.358 0,0 m -26.233,24.232 c 0.666,0.616 1.666,0.924 3.001,0.924 h 37.849 c 12.409,0 23.026,-2.154 31.849,-6.462 8.82,-4.308 15.539,-10.412 20.155,-18.31 4.616,-7.899 6.924,-17.181 6.924,-27.848 0,-11.181 -2.412,-20.901 -7.232,-29.156 -4.822,-8.258 -11.874,-14.643 -21.155,-19.155 -9.285,-4.516 -20.336,-6.77 -33.157,-6.77 h -35.233 c -1.335,0 -2.335,0.331 -3.001,1 -0.668,0.666 -1,1.666 -1,3 v 99.7 c 0,1.436 0.332,2.463 1,3.077"
         style="fill:#000000;fill-opacity:1;fill-rule:nonzero;stroke:none"
         id="path28" />
    </g>
    <g
       id="g30"
       transform="matrix(1.3333333,0,0,-1.3333333,1062.4426,1803.7801)"
       clip-path="url(#clipPath15)">
      <path
         d="m 0,0 c -0.669,-0.616 -1.72,-0.923 -3.155,-0.923 h -18.616 c -1.334,0 -2.335,0.331 -3,1 -0.669,0.666 -1,1.666 -1,3 v 99.7 c 0,1.436 0.331,2.463 1,3.077 0.665,0.616 1.666,0.924 3,0.924 h 35.233 c 16.102,0 28.103,-2.95 36.003,-8.847 7.898,-5.899 11.848,-15.001 11.848,-27.31 0,-12.924 -6.054,-22.31 -18.156,-28.156 L 66.698,4 c 0.716,-1.027 1.077,-1.949 1.077,-2.77 0,-1.437 -1.284,-2.153 -3.847,-2.153 H 43.927 c -2.155,0 -3.746,0.281 -4.77,0.846 -1.027,0.562 -2.104,1.82 -3.231,3.769 L 11.308,46.465 c -0.103,0.101 -0.283,0.435 -0.538,1 -0.257,0.563 -0.385,1.051 -0.385,1.462 0,1.024 1.024,1.693 3.077,2 5.948,0.717 10.794,2.486 14.54,5.308 3.743,2.82 5.616,6.744 5.616,11.77 0,5.232 -1.745,9.102 -5.231,11.617 -3.489,2.512 -8.67,3.77 -15.54,3.77 H 3.308 C 2.384,83.392 1.769,83.238 1.461,82.93 1.154,82.622 1,82.006 1,81.083 V 3.077 C 1,1.64 0.666,0.615 0,0"
         style="fill:#000000;fill-opacity:1;fill-rule:nonzero;stroke:none"
         id="path32" />
    </g>
    <g
       id="g34"
       transform="matrix(1.3333333,0,0,-1.3333333,1208.8112,1798.4467)"
       clip-path="url(#clipPath14)">
      <path
         d="m 0,0 c -0.923,-1.949 -1.899,-3.257 -2.923,-3.923 -1.027,-0.669 -2.514,-1 -4.462,-1 h -18.771 c -2.257,0 -3.385,0.716 -3.385,2.153 0,0.924 0.257,1.847 0.77,2.77 l 49.08,97.701 c 1.436,2.974 2.667,5.024 3.693,6.154 1.024,1.127 2.154,1.692 3.385,1.692 1.231,0 2.332,-0.565 3.308,-1.692 0.973,-1.13 2.231,-3.18 3.77,-6.154 L 83.853,0 c 0.512,-0.923 0.77,-1.795 0.77,-2.616 0,-1.538 -1.181,-2.307 -3.539,-2.307 H 61.39 c -1.95,0 -3.411,0.331 -4.385,1 C 56.029,-3.257 55.082,-1.949 54.159,0 L 26.925,56.005 Z"
         style="fill:#000000;fill-opacity:1;fill-rule:nonzero;stroke:none"
         id="path36" />
    </g>
    <g
       id="g38"
       transform="matrix(1.3333333,0,0,-1.3333333,1481.2434,1790.6511)"
       clip-path="url(#clipPath13)">
      <path
         d="m 0,0 c -0.515,-0.822 -1.488,-1.592 -2.923,-2.308 -6.77,-3.385 -13.617,-5.976 -20.541,-7.77 -6.923,-1.793 -14.182,-2.693 -21.771,-2.693 -10.77,0 -20.49,2.282 -29.156,6.848 -8.669,4.563 -15.489,11.001 -20.463,19.309 -4.977,8.308 -7.462,17.847 -7.462,28.617 0,11.283 2.512,21.233 7.539,29.849 5.024,8.617 11.974,15.283 20.847,20.002 8.871,4.717 18.899,7.077 30.08,7.077 7.693,0 14.949,-1.077 21.771,-3.231 6.821,-2.154 12.949,-5.13 18.386,-8.924 1.743,-1.13 2.615,-2.307 2.615,-3.538 0,-1.027 -0.36,-2.053 -1.076,-3.077 L -10,68.006 c -0.516,-0.823 -1.027,-1.412 -1.54,-1.77 -0.514,-0.361 -1.129,-0.538 -1.846,-0.538 -0.822,0 -1.796,0.307 -2.923,0.923 -8.924,5.128 -18.105,7.693 -27.541,7.693 -6.257,0 -11.693,-1.361 -16.309,-4.078 -4.616,-2.718 -8.181,-6.461 -10.694,-11.231 -2.514,-4.77 -3.769,-10.181 -3.769,-16.232 0,-6.154 1.281,-11.593 3.847,-16.31 2.562,-4.718 6.101,-8.384 10.616,-11 4.512,-2.616 9.693,-3.924 15.54,-3.924 6.255,0 11.693,0.871 16.309,2.616 0.923,0.409 1.539,0.82 1.846,1.231 0.308,0.409 0.462,1.128 0.462,2.154 v 21.694 c 0,1.435 0.308,2.486 0.922,3.154 0.616,0.666 1.641,1 3.078,1 h 18.771 c 1.435,0 2.461,-0.334 3.077,-1 0.615,-0.668 0.923,-1.719 0.923,-3.154 V 3.693 C 0.769,2.05 0.512,0.82 0,0"
         style="fill:#000000;fill-opacity:1;fill-rule:nonzero;stroke:none"
         id="path40" />
    </g>
    <g
       id="g42"
       transform="matrix(1.3333333,0,0,-1.3333333,1621.2532,1773.4187)"
       clip-path="url(#clipPath12)">
      <path
         d="m 0,0 c 0.666,-0.616 1,-1.642 1,-3.077 v -16.617 c 0,-2.669 -1.384,-4 -4.154,-4 h -64.774 c -1.335,0 -2.335,0.331 -3.001,1 -0.668,0.666 -1,1.666 -1,3 v 99.7 c 0,1.436 0.332,2.463 1,3.077 0.666,0.616 1.666,0.924 3.001,0.924 h 64.62 c 2.769,0 4.155,-1.335 4.155,-4.001 V 63.39 c 0,-1.438 -0.335,-2.462 -1,-3.077 -0.669,-0.616 -1.72,-0.923 -3.155,-0.923 H -42.85 c -0.922,0 -1.538,-0.181 -1.846,-0.539 -0.307,-0.36 -0.461,-0.949 -0.461,-1.769 V 45.081 c 0,-0.924 0.154,-1.539 0.461,-1.847 0.308,-0.307 0.924,-0.461 1.846,-0.461 h 34.465 c 1.435,0 2.462,-0.335 3.077,-1 0.616,-0.669 0.924,-1.719 0.924,-3.154 V 22.156 c 0,-1.335 -0.308,-2.335 -0.924,-3.001 -0.615,-0.668 -1.642,-1 -3.077,-1 H -42.85 c -0.922,0 -1.538,-0.18 -1.846,-0.538 -0.307,-0.361 -0.461,-0.95 -0.461,-1.769 V 3.231 c 0,-0.822 0.154,-1.411 0.461,-1.77 0.308,-0.36 0.924,-0.538 1.846,-0.538 H -3.154 C -1.719,0.923 -0.668,0.615 0,0"
         style="fill:#000000;fill-opacity:1;fill-rule:nonzero;stroke:none"
         id="path44" />
    </g>
    <g
       id="g46"
       transform="matrix(1.3333333,0,0,-1.3333333,1754.3918,1662.6407)"
       clip-path="url(#clipPath11)">
      <path
         d="m 0,0 c 0.666,0.616 1.666,0.923 3,0.923 h 18.618 c 2.769,0 4.153,-1.334 4.153,-4 v -99.701 c 0,-4 -1.23,-6 -3.692,-6 -1.027,0 -2.13,0.384 -3.308,1.154 -1.181,0.769 -2.746,2.077 -4.693,3.923 l -55.389,52.004 v -51.081 c 0,-1.437 -0.334,-2.461 -1,-3.076 -0.668,-0.616 -1.719,-0.924 -3.154,-0.924 h -18.617 c -1.335,0 -2.335,0.332 -3.001,1 -0.668,0.666 -1,1.666 -1,3 v 99.701 c 0,4 1.231,6 3.693,6 1.024,0 2.128,-0.384 3.308,-1.153 1.178,-0.77 2.743,-2.078 4.692,-3.924 L -1,-54.158 v 51.081 c 0,1.435 0.332,2.462 1,3.077"
         style="fill:#000000;fill-opacity:1;fill-rule:nonzero;stroke:none"
         id="path48" />
    </g>
    <g
       id="g50"
       transform="matrix(1.3333333,0,0,-1.3333333,1832.3457,1779.8809)"
       clip-path="url(#clipPath10)">
      <path
         d="m 0,0 c 1.282,2.101 3.051,3.743 5.308,4.923 2.255,1.179 4.82,1.77 7.693,1.77 2.871,0 5.436,-0.591 7.693,-1.77 2.255,-1.18 4.001,-2.822 5.231,-4.923 1.231,-2.104 1.847,-4.488 1.847,-7.154 0,-2.565 -0.616,-4.874 -1.847,-6.924 -1.23,-2.053 -2.976,-3.669 -5.231,-4.847 -2.257,-1.178 -4.822,-1.769 -7.693,-1.769 -2.873,0 -5.438,0.591 -7.693,1.769 -2.257,1.178 -4.026,2.794 -5.308,4.847 -1.283,2.05 -1.923,4.359 -1.923,6.924 0,2.666 0.64,5.05 1.923,7.154"
         style="fill:#000000;fill-opacity:1;fill-rule:nonzero;stroke:none"
         id="path52" />
    </g>
    <g
       id="g54"
       transform="matrix(1.3333333,0,0,-1.3333333,1944.7642,1803.7801)"
       clip-path="url(#clipPath9)">
      <path
         d="m 0,0 c -0.668,-0.616 -1.719,-0.923 -3.154,-0.923 h -18.617 c -1.334,0 -2.334,0.331 -3,1 -0.669,0.666 -1,1.666 -1,3 v 99.7 c 0,1.436 0.331,2.463 1,3.077 0.666,0.616 1.666,0.924 3,0.924 h 18.617 c 1.435,0 2.486,-0.308 3.154,-0.924 0.666,-0.614 1,-1.641 1,-3.077 V 3.077 C 1,1.64 0.666,0.615 0,0"
         style="fill:#000000;fill-opacity:1;fill-rule:nonzero;stroke:none"
         id="path56" />
    </g>
    <g
       id="g58"
       transform="matrix(1.3333333,0,0,-1.3333333,2027.537,1755.1609)"
       clip-path="url(#clipPath7)">
      <path
         d="m 0,0 c 2.563,-4.719 6.102,-8.361 10.617,-10.924 4.512,-2.565 9.59,-3.847 15.232,-3.847 5.64,0 10.744,1.308 15.309,3.924 4.563,2.616 8.178,6.282 10.847,11.001 2.666,4.717 4,10.102 4,16.155 0,6.255 -1.308,11.744 -3.923,16.463 -2.616,4.716 -6.207,8.385 -10.77,11.001 -4.565,2.615 -9.669,3.924 -15.309,3.924 -5.643,0 -10.746,-1.309 -15.31,-3.924 C 6.128,41.157 2.563,37.464 0,32.695 -2.565,27.926 -3.846,22.463 -3.846,16.309 -3.846,10.155 -2.565,4.716 0,0 m -24.079,45.081 c 4.975,8.512 11.821,15.179 20.541,20.002 8.717,4.819 18.564,7.23 29.541,7.23 11.078,0 21.001,-2.384 29.772,-7.154 C 64.544,60.39 71.391,53.774 76.314,45.312 81.238,36.85 83.7,27.233 83.7,16.463 83.7,5.692 81.212,-3.923 76.238,-12.386 71.261,-20.848 64.364,-27.464 55.543,-32.233 c -8.822,-4.77 -18.771,-7.155 -29.848,-7.155 -10.874,0 -20.67,2.358 -29.387,7.077 -8.719,4.717 -15.54,11.309 -20.463,19.771 -4.924,8.462 -7.386,18.026 -7.386,28.695 0,10.77 2.486,20.41 7.462,28.926"
         style="fill:#000000;fill-opacity:1;fill-rule:nonzero;stroke:none"
         id="path60" />
    </g>
  </g>
</svg>
