<?xml version="1.0" encoding="UTF-8" standalone="no"?>
<!-- Created with Inkscape (http://www.inkscape.org/) -->

<svg
   width="512"
   height="512"
   viewBox="0 0 512 512"
   version="1.1"
   id="svg1"
   sodipodi:docname="Unnamed document 1"
   inkscape:export-filename="settings-light.svg"
   inkscape:export-xdpi="96"
   inkscape:export-ydpi="96"
   xmlns:inkscape="http://www.inkscape.org/namespaces/inkscape"
   xmlns:sodipodi="http://sodipodi.sourceforge.net/DTD/sodipodi-0.dtd"
   xmlns="http://www.w3.org/2000/svg"
   xmlns:svg="http://www.w3.org/2000/svg">
  <sodipodi:namedview
     id="namedview1"
     pagecolor="#505050"
     bordercolor="#eeeeee"
     borderopacity="1"
     inkscape:showpageshadow="0"
     inkscape:pageopacity="0"
     inkscape:pagecheckerboard="0"
     inkscape:deskcolor="#505050"
     inkscape:document-units="px"
     showguides="true" />
  <defs
     id="defs1" />
  <g
     inkscape:label="Layer 1"
     inkscape:groupmode="layer"
     id="layer1">
    <path
       id="rect4"
       style="fill:#ffffff;fill-opacity:1;fill-rule:evenodd;stroke:#000000;stroke-width:10.7449;stroke-dasharray:none;stroke-opacity:0.992767;paint-order:stroke fill markers"
       d="m 230.63643,21.562107 c -12.81957,0 -23.13949,10.319909 -23.13949,23.13949 V 77.976026 A 184.73801,184.73801 0 0 0 164.5689,95.976196 L 140.88651,72.293797 c -9.06482,-9.064812 -23.65986,-9.064812 -32.72468,0 L 72.293797,108.16183 c -9.064812,9.06482 -9.064812,23.65986 0,32.72468 l 23.682399,23.68239 a 184.73801,184.73801 0 0 0 -18.00017,42.92804 H 44.701597 c -12.819581,0 -23.13949,10.31992 -23.13949,23.13949 v 50.72714 c 0,12.81957 10.319909,23.13949 23.13949,23.13949 h 33.274429 a 184.73801,184.73801 0 0 0 18.00017,42.92804 l -23.682399,23.68239 c -9.064812,9.06482 -9.064812,23.65986 0,32.72468 l 35.868033,35.86803 c 9.06482,9.06482 23.65986,9.06482 32.72468,0 l 23.68239,-23.6824 a 184.73801,184.73801 0 0 0 42.92804,18.00017 v 33.27443 c 0,12.81958 10.31992,23.13949 23.13949,23.13949 h 50.72714 c 12.81957,0 23.13949,-10.31991 23.13949,-23.13949 V 434.02397 A 184.73801,184.73801 0 0 0 347.4311,416.0238 l 23.68239,23.6824 c 9.06482,9.06482 23.65986,9.06482 32.72468,0 l 35.86803,-35.86803 c 9.06482,-9.06482 9.06482,-23.65986 0,-32.72468 L 416.0238,347.4311 a 184.73801,184.73801 0 0 0 18.00017,-42.92804 h 33.27443 c 12.81958,0 23.13949,-10.31992 23.13949,-23.13949 v -50.72714 c 0,-12.81957 -10.31991,-23.13949 -23.13949,-23.13949 H 434.02397 A 184.73801,184.73801 0 0 0 416.0238,164.5689 l 23.6824,-23.68239 c 9.06482,-9.06482 9.06482,-23.65986 0,-32.72468 L 403.83817,72.293797 c -9.06482,-9.064812 -23.65986,-9.064812 -32.72468,0 L 347.4311,95.976196 A 184.73801,184.73801 0 0 0 304.50306,77.976026 V 44.701597 c 0,-12.819581 -10.31992,-23.13949 -23.13949,-23.13949 z M 256,135.33887 A 117.24448,120.66107 0 0 1 373.24404,256 117.24448,120.66107 0 0 1 256,376.66113 117.24448,120.66107 0 0 1 138.75596,256 117.24448,120.66107 0 0 1 256,135.33887 Z m 0,64.10806 A 54.952654,56.55401 0 0 0 201.04827,256 54.952654,56.55401 0 0 0 256,312.55307 54.952654,56.55401 0 0 0 310.95173,256 54.952654,56.55401 0 0 0 256,199.44693 Z" />
  </g>
</svg>
